# xmcd CD database file
#
# Track frame offsets:
#	150
#	3128
#	21545
#	40342
#	58403
#	76727
#	98178
#	111433
#	113773
#	135664
#	160005
#	162132
#
# Disc length: 2702 seconds
#
# Revision: 0
# Processed by: cddbd v1.5PL3 Copyright (c) Steve Scherf et al.
# Submitted via: CDex 1.51
#
DISCID=930a8c0c
DTITLE=Organells - Knowing you're born
DYEAR=1900
DGENRE=Jazz
TTITLE0=1 Starcloud
TTITLE1=2 I can't go on, I'll go on
TTITLE2=3 Strictly plutonic
TTITLE3=4 Sandbank rivermouth blues
TTITLE4=5 Atheist fundamentalist backlash
TTITLE5=6 The genepool ghetto
TTITLE6=7 Peace with justice is extra
TTITLE7=8 Nusrat
TTITLE8=9 Infinity for short
TTITLE9=10 From murder mile to reconcile
TTITLE10=11 Tobycloud
TTITLE11=Handsome is as handsome does
EXTD=
EXTT0=
EXTT1=
EXTT2=
EXTT3=
EXTT4=
EXTT5=
EXTT6=
EXTT7=
EXTT8=
EXTT9=
EXTT10=
EXTT11=
PLAYORDER=
